<svg width="32" height="33" viewBox="0 0 32 33" fill="none" xmlns="http://www.w3.org/2000/svg">
<path d="M30 16.5017C30 24.2297 23.735 30.5017 16 30.5017C8.265 30.5017 2 24.2297 2 16.5017C2 8.76671 8.265 2.50171 16 2.50171C23.735 2.50171 30 8.76671 30 16.5017Z" fill="#333333"/>
<path d="M22.5621 12.9591C22.4857 13.0037 20.6671 13.9442 20.6671 16.0296C20.7528 18.4078 22.9621 19.2418 23 19.2418C22.9621 19.2864 22.6665 20.378 21.7907 21.5223C21.0956 22.5079 20.3242 23.5017 19.1528 23.5017C18.0385 23.5017 17.6385 22.8448 16.3528 22.8448C14.972 22.8448 14.5813 23.5017 13.5242 23.5017C12.3528 23.5017 11.5242 22.4547 10.7913 21.4783C9.8391 20.2003 9.02978 18.1948 9.00121 16.2692C8.98195 15.2488 9.19189 14.2457 9.72481 13.3938C10.477 12.2044 11.8198 11.3969 13.2863 11.3703C14.4099 11.335 15.4099 12.0892 16.0956 12.0892C16.7528 12.0892 17.9814 11.3703 19.3714 11.3703C19.9714 11.3709 21.5714 11.5393 22.5621 12.9591ZM16.0006 11.1666C15.8006 10.2347 16.3528 9.3029 16.8671 8.70848C17.5242 7.98963 18.5621 7.50171 19.4571 7.50171C19.5143 8.43356 19.1522 9.34746 18.505 10.0131C17.9242 10.7319 16.9242 11.2731 16.0006 11.1666Z" fill="white"/>
</svg>
