<svg width="25" height="25" viewBox="0 0 25 25" fill="none" xmlns="http://www.w3.org/2000/svg">
<path d="M23.001 12.7349C23.001 11.8716 22.9296 11.2416 22.7748 10.5883H12.7153V14.4849H18.62C18.501 15.4532 17.8582 16.9116 16.4296 17.8915L16.4096 18.022L19.5902 20.4367L19.8106 20.4583C21.8343 18.6266 23.001 15.9316 23.001 12.7349Z" fill="#4285F4"/>
<path d="M12.714 23.0017C15.6068 23.0017 18.0353 22.0683 19.8092 20.4584L16.4282 17.8916C15.5235 18.51 14.3092 18.9416 12.714 18.9416C9.88069 18.9416 7.47596 17.11 6.61874 14.5783L6.49309 14.5888L3.18583 17.0971L3.14258 17.215C4.90446 20.645 8.5235 23.0017 12.714 23.0017Z" fill="#34A853"/>
<path d="M6.62046 14.5784C6.39428 13.9251 6.26337 13.2251 6.26337 12.5018C6.26337 11.7784 6.39428 11.0784 6.60856 10.4251L6.60257 10.2859L3.25386 7.7373L3.14429 7.78838C2.41814 9.21173 2.00146 10.8101 2.00146 12.5018C2.00146 14.1934 2.41814 15.7917 3.14429 17.215L6.62046 14.5784Z" fill="#FBBC05"/>
<path d="M12.7141 6.06168C14.7259 6.06168 16.083 6.91334 16.8569 7.62506L19.8807 4.73171C18.0236 3.04005 15.6069 2.00171 12.7141 2.00171C8.52353 2.00171 4.90447 4.35836 3.14258 7.78833L6.60686 10.425C7.47598 7.89337 9.88073 6.06168 12.7141 6.06168Z" fill="#EB4335"/>
</svg>
